<?xml version="1.0" encoding="us-ascii" standalone="no"?>
<svg xmlns="http://www.w3.org/2000/svg" contentStyleType="text/css" height="395px" preserveAspectRatio="none"
     style="width:815px;height:395px;background:#FFFFFF;" version="1.1" viewBox="0 0 815 395" width="815px"
     zoomAndPan="magnify">
    <defs/>
    <g>
        <rect fill="#FFFFFF" height="275.6481" style="stroke:#181818;stroke-width:1.0;" width="10" x="315" y="72.7739"/>
        <rect fill="#FFFFFF" height="95.118" style="stroke:#181818;stroke-width:1.0;" width="10" x="615" y="212.598"/>
        <line style="stroke:#181818;stroke-width:0.5;stroke-dasharray:5.0,5.0;" x1="69" x2="69" y1="39.0679"
              y2="357.4221"/>
        <line style="stroke:#181818;stroke-width:0.5;stroke-dasharray:5.0,5.0;" x1="319.5" x2="319.5" y1="39.0679"
              y2="357.4221"/>
        <line style="stroke:#181818;stroke-width:0.5;stroke-dasharray:5.0,5.0;" x1="620" x2="620" y1="39.0679"
              y2="357.4221"/>
        <line style="stroke:#181818;stroke-width:0.5;stroke-dasharray:5.0,5.0;" x1="762.5" x2="762.5" y1="39.0679"
              y2="357.4221"/>
        <rect fill="#E2E2F0" height="33.0679" rx="2.5" ry="2.5" style="stroke:#181818;stroke-width:0.5;" width="128"
              x="5" y="5"/>
        <text fill="#000000" font-family="sans-serif" font-size="14" lengthAdjust="spacing" textLength="114" x="12"
              y="26.9659">User (Web client)
        </text>
        <rect fill="#E2E2F0" height="33.0679" rx="2.5" ry="2.5" style="stroke:#181818;stroke-width:0.5;" width="128"
              x="5" y="356.4221"/>
        <text fill="#000000" font-family="sans-serif" font-size="14" lengthAdjust="spacing" textLength="114" x="12"
              y="378.388">User (Web client)
        </text>
        <rect fill="#E2E2F0" height="33.0679" rx="2.5" ry="2.5" style="stroke:#181818;stroke-width:0.5;" width="111"
              x="264.5" y="5"/>
        <text fill="#000000" font-family="sans-serif" font-size="14" lengthAdjust="spacing" textLength="97" x="271.5"
              y="26.9659">Token handler
        </text>
        <rect fill="#E2E2F0" height="33.0679" rx="2.5" ry="2.5" style="stroke:#181818;stroke-width:0.5;" width="111"
              x="264.5" y="356.4221"/>
        <text fill="#000000" font-family="sans-serif" font-size="14" lengthAdjust="spacing" textLength="97" x="271.5"
              y="378.388">Token handler
        </text>
        <rect fill="#E2E2F0" height="33.0679" rx="2.5" ry="2.5" style="stroke:#181818;stroke-width:0.5;" width="122"
              x="559" y="5"/>
        <text fill="#000000" font-family="sans-serif" font-size="14" lengthAdjust="spacing" textLength="108" x="566"
              y="26.9659">Resource server
        </text>
        <rect fill="#E2E2F0" height="33.0679" rx="2.5" ry="2.5" style="stroke:#181818;stroke-width:0.5;" width="122"
              x="559" y="356.4221"/>
        <text fill="#000000" font-family="sans-serif" font-size="14" lengthAdjust="spacing" textLength="108" x="566"
              y="378.388">Resource server
        </text>
        <rect fill="#E2E2F0" height="33.0679" rx="2.5" ry="2.5" style="stroke:#181818;stroke-width:0.5;" width="93"
              x="716.5" y="5"/>
        <text fill="#000000" font-family="sans-serif" font-size="14" lengthAdjust="spacing" textLength="79" x="723.5"
              y="26.9659">Auth Server
        </text>
        <rect fill="#E2E2F0" height="33.0679" rx="2.5" ry="2.5" style="stroke:#181818;stroke-width:0.5;" width="93"
              x="716.5" y="356.4221"/>
        <text fill="#000000" font-family="sans-serif" font-size="14" lengthAdjust="spacing" textLength="79" x="723.5"
              y="378.388">Auth Server
        </text>
        <rect fill="#FFFFFF" height="275.6481" style="stroke:#181818;stroke-width:1.0;" width="10" x="315" y="72.7739"/>
        <rect fill="#FFFFFF" height="95.118" style="stroke:#181818;stroke-width:1.0;" width="10" x="615" y="212.598"/>
        <polygon fill="#181818" points="303,68.7739,313,72.7739,303,76.7739,307,72.7739"
                 style="stroke:#181818;stroke-width:1.0;"/>
        <line style="stroke:#181818;stroke-width:1.0;" x1="69" x2="309" y1="72.7739" y2="72.7739"/>
        <text fill="#000000" font-family="sans-serif" font-size="13" lengthAdjust="spacing" textLength="154" x="76"
              y="66.9649">Request secured resource
        </text>
        <polygon fill="#008B8B" points="80,100.4799,70,104.4799,80,108.4799,76,104.4799"
                 style="stroke:#008B8B;stroke-width:1.0;"/>
        <line style="stroke:#008B8B;stroke-width:1.0;stroke-dasharray:2.0,2.0;" x1="74" x2="314" y1="104.4799"
              y2="104.4799"/>
        <text fill="#000000" font-family="sans-serif" font-size="13" lengthAdjust="spacing" textLength="222" x="86"
              y="98.6709">Ask for client-session in secure cookie
        </text>
        <polygon fill="#008B8B" points="303,132.186,313,136.186,303,140.186,307,136.186"
                 style="stroke:#008B8B;stroke-width:1.0;"/>
        <line style="stroke:#008B8B;stroke-width:1.0;stroke-dasharray:2.0,2.0;" x1="69" x2="309" y1="136.186"
              y2="136.186"/>
        <text fill="#000000" font-family="sans-serif" font-size="13" lengthAdjust="spacing" textLength="124" x="76"
              y="130.377">Return client-session
        </text>
        <line style="stroke:#008B8B;stroke-width:1.0;" x1="325" x2="367" y1="167.892" y2="167.892"/>
        <line style="stroke:#008B8B;stroke-width:1.0;" x1="367" x2="367" y1="167.892" y2="180.892"/>
        <line style="stroke:#008B8B;stroke-width:1.0;" x1="326" x2="367" y1="180.892" y2="180.892"/>
        <polygon fill="#008B8B" points="336,176.892,326,180.892,336,184.892,332,180.892"
                 style="stroke:#008B8B;stroke-width:1.0;"/>
        <text fill="#000000" font-family="sans-serif" font-size="13" lengthAdjust="spacing" textLength="117" x="332"
              y="162.083">Verify client-session
        </text>
        <polygon fill="#008000" points="603,208.598,613,212.598,603,216.598,607,212.598"
                 style="stroke:#008000;stroke-width:1.0;"/>
        <line style="stroke:#008000;stroke-width:1.0;" x1="325" x2="609" y1="212.598" y2="212.598"/>
        <text fill="#000000" font-family="sans-serif" font-size="13" lengthAdjust="spacing" textLength="271" x="332"
              y="206.789">Request secured resource (with access-token)
        </text>
        <polygon fill="#181818" points="751,240.304,761,244.304,751,248.304,755,244.304"
                 style="stroke:#181818;stroke-width:1.0;"/>
        <line style="stroke:#181818;stroke-width:1.0;" x1="625" x2="757" y1="244.304" y2="244.304"/>
        <text fill="#000000" font-family="sans-serif" font-size="13" lengthAdjust="spacing" textLength="114" x="632"
              y="238.495">Verify access-token
        </text>
        <polygon fill="#181818" points="636,272.01,626,276.01,636,280.01,632,276.01"
                 style="stroke:#181818;stroke-width:1.0;"/>
        <line style="stroke:#181818;stroke-width:1.0;stroke-dasharray:2.0,2.0;" x1="630" x2="762" y1="276.01"
              y2="276.01"/>
        <text fill="#000000" font-family="sans-serif" font-size="13" lengthAdjust="spacing" textLength="58" x="642"
              y="270.201">Token OK
        </text>
        <polygon fill="#008000" points="336,303.716,326,307.716,336,311.716,332,307.716"
                 style="stroke:#008000;stroke-width:1.0;"/>
        <line style="stroke:#008000;stroke-width:1.0;stroke-dasharray:2.0,2.0;" x1="330" x2="619" y1="307.716"
              y2="307.716"/>
        <text fill="#000000" font-family="sans-serif" font-size="13" lengthAdjust="spacing" textLength="146" x="342"
              y="301.907">Return secured resource
        </text>
        <polygon fill="#181818" points="80,335.4221,70,339.4221,80,343.4221,76,339.4221"
                 style="stroke:#181818;stroke-width:1.0;"/>
        <line style="stroke:#181818;stroke-width:1.0;stroke-dasharray:2.0,2.0;" x1="74" x2="314" y1="339.4221"
              y2="339.4221"/>
        <text fill="#000000" font-family="sans-serif" font-size="13" lengthAdjust="spacing" textLength="146" x="86"
              y="333.6131">Return secured resource
        </text><!--SRC=[VPAzRi8m58LtFyMLMSBW5s2enCnGYROmL0okSoXMaArUsq5vUq8Q971CHb_Pt_dnbLy1JDKUFsJE5Yuk9Qataf- -WQEJTlKPB5UqnLz2Y1HW4gCcHl293OGsqROw8dyYiZEfxqMjkJ6TTeURmbHuHUlGqD7pE5418LZloBfHbuptZOMG9TSPVveW9dOPUjPb0R83ssENGqgKNmO6n7Pige_0xMoNL5riF94sfkUgU4Ck7_hDGM8o6NvkdNh6nrrhDFp854zNIAcYoVz4xvkIoZtTJCsJFQanboJlxzM2lA1V0G00]-->
    </g>
</svg>